<?xml version="1.0" encoding="UTF-8"?><!DOCTYPE svg PUBLIC "-//W3C//DTD SVG 1.0//EN" "http://www.w3.org/TR/2001/REC-SVG-20010904/DTD/svg10.dtd"><svg viewBox="0 0 2000 535.71" xmlns="http://www.w3.org/2000/svg" xmlns:xlink="http://www.w3.org/1999/xlink"><style>:root>svg{display:none}:root>svg:target{display:block}</style><svg version="1.0" viewBox="0 0 20.16 37.6" shape-rendering="geometricPrecision" text-rendering="geometricPrecision" image-rendering="optimizeQuality" fill-rule="evenodd" clip-rule="evenodd" id="facebook" xmlns="http://www.w3.org/2000/svg"><defs><style>.afil0{fill:#fff;fill-rule:nonzero}</style></defs><path class="afil0" d="M18.84 21.15l1.04-6.8h-6.53V9.93c0-1.86.91-3.68 3.84-3.68h2.97V.46S17.46 0 14.88 0c-5.38 0-8.9 3.26-8.9 9.16v5.19H0v6.8h5.98V37.6h7.37V21.15h5.49z" id="aСлой_x0020_1"/></svg><svg version="1.0" viewBox="0 0 103.11 103.02" shape-rendering="geometricPrecision" text-rendering="geometricPrecision" image-rendering="optimizeQuality" fill-rule="evenodd" clip-rule="evenodd" id="instagram" xmlns="http://www.w3.org/2000/svg"><defs><style>.bfil0{fill:#fff;fill-rule:nonzero}</style></defs><g id="bСлой_x0020_1"><g id="b_2202693120864"><path class="bfil0" d="M51.56 0C37.55 0 35.8.06 30.3.31c-5.49.25-9.24 1.12-12.51 2.39-3.4 1.32-6.27 3.08-9.14 5.95-2.86 2.86-4.63 5.73-5.94 9.12-1.28 3.28-2.15 7.02-2.4 12.5C.06 35.77 0 37.52 0 51.51 0 65.5.06 67.26.31 72.75c.25 5.48 1.12 9.23 2.4 12.5 1.31 3.39 3.08 6.26 5.94 9.13 2.87 2.86 5.74 4.62 9.14 5.94 3.27 1.27 7.02 2.14 12.51 2.39 5.5.25 7.25.31 21.26.31 14 0 15.75-.06 21.25-.31 5.49-.25 9.24-1.12 12.52-2.39 3.39-1.32 6.26-3.08 9.13-5.94 2.87-2.87 4.63-5.74 5.95-9.13 1.27-3.27 2.14-7.02 2.39-12.5.26-5.49.31-7.25.31-21.24 0-13.99-.05-15.74-.31-21.24-.25-5.48-1.12-9.22-2.39-12.5-1.32-3.39-3.08-6.26-5.95-9.12-2.87-2.87-5.74-4.63-9.13-5.95C82.05 1.43 78.3.56 72.81.31 67.31.06 65.56 0 51.56 0zm0 9.28c13.76 0 15.39.05 20.83.3 5.03.23 7.76 1.07 9.57 1.78 2.41.93 4.13 2.05 5.93 3.85 1.81 1.8 2.92 3.52 3.86 5.92.7 1.82 1.54 4.54 1.77 9.57.25 5.43.3 7.06.3 20.81 0 13.76-.05 15.38-.3 20.82-.23 5.02-1.07 7.75-1.77 9.56-.94 2.41-2.05 4.12-3.86 5.92-1.8 1.81-3.52 2.92-5.93 3.86-1.81.7-4.54 1.54-9.57 1.77-5.44.25-7.07.3-20.83.3-13.77 0-15.4-.05-20.84-.3-5.02-.23-7.75-1.07-9.57-1.77-2.41-.94-4.12-2.05-5.93-3.86-1.8-1.8-2.92-3.51-3.85-5.92-.71-1.81-1.55-4.54-1.78-9.56-.25-5.44-.3-7.06-.3-20.82 0-13.75.05-15.38.3-20.81.23-5.03 1.07-7.75 1.78-9.57.93-2.4 2.05-4.12 3.85-5.92 1.81-1.8 3.52-2.92 5.93-3.85 1.82-.71 4.55-1.55 9.57-1.78 5.44-.25 7.07-.3 20.84-.3z"/><path class="bfil0" d="M51.56 68.68c-9.49 0-17.19-7.69-17.19-17.17s7.7-17.17 17.19-17.17c9.49 0 17.18 7.69 17.18 17.17s-7.69 17.17-17.18 17.17zm0-43.62c-14.62 0-26.48 11.84-26.48 26.45s11.86 26.45 26.48 26.45c14.62 0 26.47-11.84 26.47-26.45S66.18 25.06 51.56 25.06zM85.26 24.01c0 3.42-2.76 6.18-6.18 6.18a6.18 6.18 0 110-12.36c3.42 0 6.18 2.77 6.18 6.18z"/></g></g></svg><svg version="1.0" viewBox="0 0 2407.88 644.53" shape-rendering="geometricPrecision" text-rendering="geometricPrecision" image-rendering="optimizeQuality" fill-rule="evenodd" clip-rule="evenodd" id="logo" xmlns="http://www.w3.org/2000/svg"><defs><style>.cfil0{fill:#fff}</style></defs><g id="cСлой_x0020_1"><path class="cfil0" d="M283.82 608.32V23.75L567.23 0v625.88l-133.43-8.27v-7.42l126.02 7.8V8.06L291.23 30.57v570.79l73.96 4.58v7.42zM146.21 413.47c11.84 6.09 19.07 16.98 19.07 41.45l.04 118.23c.01 9.08-1.98 18.97-8.76 25.62-6.76 6.63-15.37 9.55-24.82 9.55H0v-389.7h130.73c9.45 0 18.03 2.94 24.8 9.53 6.8 6.62 9.75 15.04 9.75 24.36 0 42.32.02 75.27 0 117.59 0 26.39-6.94 37.33-19.07 43.37zm-33.94 153.47c4.04-.56 6.76-3.88 6.76-7.87 0-34.05.02-68.28 0-102.41 0-10.68-8.72-20.52-19.13-20.52H46.23v130.8h66.04zm.01-306.93H46.23V390.8h54.64c11.67 0 18.39-9.86 18.39-20.36 0-34.19-.19-68.38-.21-102.56 0-4-2.72-7.32-6.77-7.87zM695.85 390.8h72.56V218.62h46.39v389.7h-46.39V436.14h-79.79c-22.15 0-39.15-18.21-39.15-39.49V218.62h46.38V390.8zM1136.78 436.14h-77.14v172.18h-44.09v-389.7h44.09V390.8h77.14V218.62h44.09v389.7h-44.09zM1748.98 260.01h-73.4v306.93h73.4v-93.02h45.96v100.51c0 9.34-3 17.78-9.79 24.38-6.71 6.51-15.19 9.51-24.56 9.51h-96.63c-9.4 0-17.95-2.92-24.67-9.55-6.71-6.62-9.67-15.06-9.67-24.34V252.51c0-9.28 2.96-17.71 9.67-24.34 6.72-6.63 15.27-9.55 24.67-9.55h96.63c9.37 0 17.85 3 24.56 9.52 6.79 6.59 9.79 15.03 9.79 24.37v100.52h-45.96v-93.02zM2041.8 260.01v348.31h-46.11V260.01h-59.86v-41.39h165.32v41.39zM2288.93 390.8h79.53c24.12 0 39.42 16.49 39.42 39.49v144.14c0 9.34-3.05 17.75-9.87 24.36-6.76 6.55-15.33 9.53-24.8 9.53h-130.66v-389.7h46.38V390.8zm72.56 45.34h-72.56v130.8h72.56v-130.8z"/><path class="cfil0" d="M360.15 421.76c-1.3-1.33-1.81-3.35-2.29-5.43-.44-1.92.46-3.19 1.12-5.06 1.25 3.71.75 4.99 1.57 7.43 1.24 3.73 2.5 5.34 5.14 4.38 1.84-.74 1.37-5.53.3-8.52-1.78-5-.69-3.9-1.39-8.65-3.31-11.65-5.51-11.64-6.67-13.01-3.29-3.87-2.64-21.59-2.35-29.18.14-3.81.95-5.42.95-10l1.11-.47c1.61-.83 2.83-2.6 1.7-9.46-1.12-6.86.88-11.35-1.71-14.86 3.88-6.37 3.17-12.99 9.21-20.61 1.48 2.33 1.5 4.92 1.97 7.61 2.04 11.64.62 20.25 1.45 31.41l.03 19.18c-2.89 18.34-2.45 18.47 3.11 26.6.44 2.51.49 5.75 1.1 8.4 3.85 16.69 2.12 17.2 10.13 33.71 2.8 5.76 2.36 12.32 3.4 18.52.67 3.99.66 4.28 2 8.05 1.85 5.18.76 4.03.39 8.71-.79 9.84 3.27 19.2 1.55 27.21-.38 1.76-2.32 7.41-3.36 9.38-7.58 14.43-16.51 22.52-20.76 43.5-1.93 9.49-2.19 7.66-6.61 15.32-1.26 2.19-2.36 5.05-4.02 6.94-2.07 2.34-3.76 2.14-5.91 5.07-.35 4.52 1.51 10.02.01 14.13-3.46 9.82-7.94 8.07-11.79 17.37-1.3 3.15.13 1.58-2.8 4.5-1.82 1.82-2 3.24-2.58 5.65 8.19 12.32 21.89 11.98 34.16 20.59 12.02 6.16 20.31 4.58 30.28 2.53 3.89-.8 5.56-1.68 6.03-2.45.94-1.54.36-2.92.68-5.73.48-4.23-16.87-7.21-18.3-8.64-3.28-3.27-3.67-12.62-6.69-17.99 9.97-16.38 3.03-10.57 4.73-16.43 5.81-8.75 9.03-11.69 11-21.9l1.7-2.4c-.01 5.86 1.85 11.37.68 17.55-1.74 9.17 1.91 12.03 4.51 18.02.52 1.22-.67 4.74-1.15 8.86-.4 3.5.66 6.99-.31 8.24-1.13 1.45-.8 5.02-.8 6.79 10.49 6.84 22.15 1.49 33.31-.49 11.77-2.1 21.68-2.15 26.92-9.88.26-1.95.64-6.48-.76-7.33-5.19-3.12-11.23-1.85-19.23-3.77l-10.77-11.16c-.22-9.5.89-6.29-3.88-13.48.52-5.81 2.12-3.53 1.04-10.12-2.93-17.74-1.64-17.96-1.07-35.54l8.09-41c1.43-9.46 6.63-19.85 9.19-29.17 4.65-16.91 5.2-24.17 6.43-41.61.22-3.07.73-2.86.96-5.93.47-14.8.19-14.83 5.01-17.81-.39-6.72-1.53-9.75-1.85-12.87-.27-2.69-.98-8.27-.98-12.26.17-5.38-2.4-12.28-3.69-21.26 2.56 3.53 4.15 8.37 6.27 11.47 4.54 6.65 11.08 12.41 14.63 16.5 2.79 3.2 5.29 6.2 8.06 8.4 0 6.93.2 9.17 4.81 14.37 2.69 3.05 6.8 6.23 6.57 11.81-4.64 5.7-6.97 3.68-7.03 7.99 6.05 2.79 6.99 2.64 12.69-.76 3.77-1.89 4.9-6.37 6.07-12.2 3.84-13.78-2.49-13.44-7.43-25.89-2.04-5.14-4.49-6.68-6.53-11.74-2.05-5.06-3.34-7.44-5.82-12.46-5.46-11.07-7.5-18.12-9.21-22.95 1.46-.92 2.67-2.94 2.66-4.21-.69-2.5-1.69-5.47-2.93-8.11-1.76-3.76-.47-4.27-2.43-7.62-6.05-5.23-2.85-7.65-4.76-16.24-.57-2.57-1.8-5.22-2.16-7.89-.47-3.56-.71-5.94-1.53-9.43-.53-2.3-1.68-5.72-2.04-8-.72-4.56.85-35.03-10.87-41.03-3.37-1.73-2.93-.26-6.99-3.07-5.54-3.84-7.47-2.57-14.2-7.92-1.94-1.55-2.89-3.28-6.26-5.23 4.02-2.78 6.64-.95 9.84-2.74 3.18-1.78 2.48-5.48 3.19-8.68 2.56-11.15 3.24-9.58 1.45-19.91-.65-5.36 2.53-6.27 1.4-9.45-1.34-3.8-2.78-5.61-2.46-9.37.45-5.12 2.29-11.53-1.99-13.4-2.79-1.23-2.46-1.63-3.82-3.38-4.37-.67-5.8-2.48-8.11-2.71-4.65-.46-2.16-2.28-4.47-2.32-2.09-.63-3.97-.69-4.82-.62-.52.04-1-.9-2.39-.76-1.39.13-1.91 1.65-3.15 1.52-3.6-.39-7.68-.85-16.38 5.78-13.38 13.45-13.01 18.76-7.65 39.16 4.04 12.16 9.43 10.67 10.83 19.53-3.11.98-4.52-.73-7.5 6.58-2.42 3.29-10.11 8.84-13.11 10.46-2.61 1.41-6.89 2.31-9 4.72-2.41 2.74-8.28 13.2-9 16.58-1.52 7.16-4.32 12.69-7.09 19.4-2.86 6.97-2.52 14.53-5.21 21.27-3.06 7.7-5.07 11.92-6.15 20.34-.44 3.43-.92 6.88-2.65 10.13-3.49 7.03-1.5 8.14-1.05 13.38.7 7.95-3.23 14.57 2.64 17.89.47 4 1.02 8 1.7 11.99l2.12 11.59c3.61 19.43 3.78 13.11 1.9 28.2-.49 2.67.07 2.15.52 7.04.38 4.13.67 6.32 2.7 8.3 3.32 3.28 6.05 7.68 10.74 9.14 1.08.34 2.39.05 3.44-.34 1.76 1.09 5.15 2.39 6.43 1.41 3.44-2.63-1.02-4.93-3.71-7.7zM1427.29 608.32h-44.09v-389.7h44.09z"/></g></svg><svg version="1.0" viewBox="0 0 78.6 89.86" shape-rendering="geometricPrecision" text-rendering="geometricPrecision" image-rendering="optimizeQuality" fill-rule="evenodd" clip-rule="evenodd" id="twitter" xmlns="http://www.w3.org/2000/svg"><defs><style>.dfil0{fill:#fff;fill-rule:nonzero}</style></defs><path class="dfil0" d="M78.42 21.88c0-.4-.01-.42-.44-.42-1.02.01-2.03-.11-3.04-.26-3.65-.55-15.5-6.76-17.5-16.92-.04-.19-.49-2.71-.48-3.79 0-.48-.01-.48-.48-.49H42.24c-.93 0-.8-.11-.8.82-.01 20.09-.01 40.18 0 60.27 0 .75-.02 1.49-.15 2.23-.7 3.88-2.7 6.93-6.07 9-2.92 1.8-6.09 2.32-9.46 1.65-1.06-.21-2.06-.61-3.05-1l-.25-.22c-.33-.28-.7-.52-1.06-.76-4.29-2.97-6.33-7.1-5.71-12.25.63-5.23 3.64-8.78 8.6-10.61 1.48-.54 3.04-.77 4.62-.68 1.02.05 2.04.18 3.03.46.34.1.52-.02.54-.39.01-.12.01-.25.01-.38 0-3.6-.14-11.48-.15-11.5 0-1.04 0-2.08.02-3.11.01-.3-.14-.35-.39-.38-1.87-.23-3.74-.27-5.62-.13-2.6.19-5.12.72-7.57 1.6-3.9 1.41-7.33 3.57-10.29 6.47a28.122 28.122 0 00-6 8.6 27.98 27.98 0 00-2.43 9.75c-.1 1.47-.08 2.95.06 4.42.19 2.04.57 4.04 1.19 5.98 1.79 5.6 5.03 10.19 9.63 13.84.47.37.92.77 1.48 1.01.23.21.47.42.7.63.75.56 1.54 1.04 2.38 1.45 5.15 2.54 10.58 3.58 16.3 2.88 7.42-.91 13.6-4.19 18.47-9.86 4.58-5.33 6.81-11.58 6.85-18.58.06-10 .01-20 .02-30.01 0-.24-.14-.58.13-.7.2-.09.41.18.6.31 3.73 2.45 7.75 4.21 12.1 5.21 2.53.58 5.09.93 7.7.92.82 0 .93-.04.93-.85 0-3.55-.18-13.27-.18-14.21z" id="dСлой_x0020_1"/></svg><svg version="1.0" viewBox="0 0 332.06 232.24" shape-rendering="geometricPrecision" text-rendering="geometricPrecision" image-rendering="optimizeQuality" fill-rule="evenodd" clip-rule="evenodd" id="youtube" xmlns="http://www.w3.org/2000/svg"><defs><style>.efil0{fill:#fff;fill-rule:nonzero}</style></defs><path class="efil0" d="M132.82 165.88V66.35l86.27 49.77-86.27 49.76zm192.3-129.61c-3.82-14.28-15.07-25.52-29.36-29.34C269.87 0 166.03 0 166.03 0S62.19 0 36.29 6.93C22.01 10.75 10.76 21.99 6.94 36.27 0 62.14 0 116.12 0 116.12s0 53.98 6.94 79.85c3.82 14.28 15.07 25.52 29.35 29.33 25.9 6.93 129.74 6.93 129.74 6.93s103.84 0 129.73-6.93c14.29-3.81 25.54-15.05 29.36-29.33 6.94-25.87 6.94-79.85 6.94-79.85s0-53.98-6.94-79.85z" id="eСлой_x0020_1"/></svg></svg>